<svg xmlns="http://www.w3.org/2000/svg" width="54" height="54" viewBox="0 0 54 54">
  <circle id="Ellipse_2" data-name="Ellipse 2" cx="27" cy="27" r="27" fill="#78e08f"/>
  <path id="github" d="M11.169,34.216c0,.135-.155.242-.35.242-.222.02-.377-.088-.377-.242,0-.135.155-.242.35-.242C10.994,33.953,11.169,34.061,11.169,34.216Zm-2.094-.3c-.047.135.088.289.289.33a.316.316,0,0,0,.417-.135c.04-.135-.088-.289-.289-.35a.346.346,0,0,0-.417.155Zm2.976-.114c-.2.047-.33.175-.31.33.02.135.2.222.4.175s.33-.175.31-.31S12.246,33.778,12.051,33.8ZM16.481,8A16.144,16.144,0,0,0,0,24.427a16.879,16.879,0,0,0,11.411,16.1c.862.155,1.165-.377,1.165-.815,0-.417-.02-2.72-.02-4.134,0,0-4.713,1.01-5.7-2.006,0,0-.767-1.959-1.872-2.464,0,0-1.542-1.057.108-1.037a3.554,3.554,0,0,1,2.6,1.737A3.559,3.559,0,0,0,12.6,33.22a3.742,3.742,0,0,1,1.077-2.269c-3.763-.417-7.56-.963-7.56-7.439A5.1,5.1,0,0,1,7.7,19.546a6.361,6.361,0,0,1,.175-4.571c1.407-.438,4.645,1.818,4.645,1.818a15.9,15.9,0,0,1,8.456,0s3.238-2.262,4.645-1.818a6.358,6.358,0,0,1,.175,4.571,5.233,5.233,0,0,1,1.737,3.965c0,6.5-3.965,7.015-7.729,7.439a3.981,3.981,0,0,1,1.145,3.124c0,2.269-.02,5.076-.02,5.628,0,.438.31.969,1.165.815a16.723,16.723,0,0,0,11.3-16.09C33.393,15.089,25.819,8,16.481,8ZM6.544,31.22c-.088.067-.067.222.047.35.108.108.263.155.35.067.088-.067.067-.222-.047-.35C6.786,31.18,6.631,31.132,6.544,31.22Zm-.727-.545c-.047.088.02.2.155.263a.2.2,0,0,0,.289-.047c.047-.088-.02-.2-.155-.263C5.972,30.587,5.864,30.607,5.817,30.675ZM8,33.071c-.108.088-.067.289.088.417.155.155.35.175.438.067.088-.088.047-.289-.088-.417C8.288,32.984,8.086,32.964,8,33.071Zm-.767-.99c-.108.067-.108.242,0,.4s.289.222.377.155a.307.307,0,0,0,0-.417C7.513,32.062,7.338,31.994,7.231,32.082Z" transform="translate(10.304 2.721)"/>
</svg>
