<svg xmlns="http://www.w3.org/2000/svg" width="54" height="54" viewBox="0 0 54 54">
  <g id="Group_13" data-name="Group 13" transform="translate(-975 -4591)">
    <circle id="Ellipse_14" data-name="Ellipse 14" cx="27" cy="27" r="27" transform="translate(975 4591)"/>
    <path id="linkedin-in" d="M5.752,25.691H.424V8.539H5.752ZM3.085,6.2A3.1,3.1,0,1,1,6.17,3.085,3.111,3.111,0,0,1,3.085,6.2Zm22.6,19.492H20.369v-8.35c0-1.99-.04-4.542-2.77-4.542-2.77,0-3.194,2.162-3.194,4.4v8.493H9.084V8.539h5.11v2.34h.075a5.6,5.6,0,0,1,5.041-2.77c5.391,0,6.383,3.55,6.383,8.16v9.422Z" transform="translate(989.155 4604.963)" fill="#fff"/>
  </g>
</svg>
